<?xml version="1.0" standalone="no"?>
<!DOCTYPE svg PUBLIC "-//W3C//DTD SVG 20010904//EN"
 "http://www.w3.org/TR/2001/REC-SVG-20010904/DTD/svg10.dtd">
<svg version="1.0" xmlns="http://www.w3.org/2000/svg"
 width="16.000000pt" height="16.000000pt" viewBox="0 0 16.000000 16.000000"
 preserveAspectRatio="xMidYMid meet">
<metadata>
Created by potrace 1.11, written by Peter Selinger 2001-2013
</metadata>
<g transform="translate(0.000000,16.000000) scale(0.006250,-0.006250)"
fill="#000000" stroke="none">
<path d="M1070 2518 c-14 -6 -48 -11 -77 -12 -72 -1 -85 -17 -92 -108 l-6 -72
-50 -14 c-213 -56 -338 -124 -466 -251 -317 -315 -354 -845 -91 -1301 266
-461 762 -750 1246 -727 121 6 136 8 243 37 250 68 468 252 573 484 33 73 67
178 77 244 10 57 10 291 1 347 -28 173 -97 357 -192 510 -24 38 -24 40 -5 53
43 30 71 126 70 237 -1 39 -3 79 -5 90 -3 11 -5 28 -5 39 -1 10 -16 32 -34 50
-18 17 -42 48 -52 70 -21 40 -54 68 -83 70 -21 1 -60 28 -126 87 -101 90 -162
124 -281 154 -135 34 -295 18 -424 -41 l-54 -24 -30 30 c-27 27 -87 61 -106
59 -3 0 -17 -5 -31 -11z"/>
</g>
</svg>
