<svg version="1" xmlns="http://www.w3.org/2000/svg" width="693.333" height="693.333" viewBox="0 0 520.000000 520.000000"><path d="M242 41.4c-.5 1.3-2.1 6.4-3.6 11.3-6.4 21-14.6 29.7-31.9 33.4-8 1.7-44.7 1.8-54.3.1-16-2.7-34.8-4.4-56.8-4.9-26.2-.7-35.4.3-47.5 4.7C17.3 97.1 1 128.3 1 175.6v14.2l11.5.7c13.6.8 27-.1 28.9-2.1.8-.7 2.4-5.5 3.6-10.6 2.8-12.2 5.8-18.6 11.6-24.8 12-12.8 36.8-17.1 70-12 22 3.3 37.8 4.2 64.5 3.8 27.5-.5 30.5-1 41.9-6.8 11-5.6 18.7-14.6 23.6-27.6 1.4-3.7 3.1-7.9 3.8-9.2 1.3-2.5 1.4-2.5 3.1 3.4 5.6 19.5 18.7 33 36.6 38 11.8 3.3 59.4 2.7 97.4-1.1 18.7-1.9 40.4-1.9 47.8 0 19.2 5 29 16.5 32.1 37.8.8 5.4 1.7 10.1 2 10.5 1.2 1.1 35 .7 37.9-.6l2.7-1.2v-17.4c0-18.9-1.1-27.2-5.5-40.2-4.4-13.1-9.2-21.1-17.5-29.4-9-9.1-17.8-14-31.8-17.7-9-2.5-11.1-2.7-30.7-2.7-15.8.1-27.5.7-47 2.8-31.5 3.3-61.6 4.4-70.7 2.6-8.9-1.7-16-5.5-21.7-11.5-5.9-6.2-8.8-11.7-13.2-25.3L278.6 39H243l-1 2.4z"/><path d="M70 166.7c0 .5 10.8 24.2 24 52.8l23.9 52 12.3.3 12.4.3 14.6-31.3c17.3-36.7 24.1-51.7 29.6-65.1l4.1-9.7h-27.4L147 203.5l-16.5 37.4-2.5-5.7c-1.4-3.1-8.9-20-16.5-37.4l-14-31.8H83.8c-7.6 0-13.8.3-13.8.7zM331 166.8c0 .4 10.7 24.2 23.8 52.8l23.9 51.9 12 .3 12.1.3 4.5-8.8c8.7-16.9 28.9-60.8 42.8-93.1l1.8-4.2h-27.5l-15.3 34.7c-8.5 19.2-16 35.9-16.7 37.3-1.2 2.4-1.3 2.2-5.2-6.1-2.2-4.7-7.4-16.9-11.6-27-4.3-10.1-10.1-22.9-12.9-28.4l-5.2-10-13.2-.3c-7.3-.1-13.3.1-13.3.6zM182 251.9c0 .5-7 15.9-15.6 34.3-15.2 32.3-30.5 66.3-31.9 70.7-.6 2.1-.6 2.2 13 1.9l13.6-.3 16.9-38 16.9-37.9 2.6 5.9c1.4 3.3 9 20.6 16.8 38.5l14.3 32.5 9.2.3c9.1.3 17.2-1 17.2-2.8 0-1.4-15.6-36.1-32.5-72.3L206.7 251h-12.3c-6.8 0-12.4.4-12.4.9zM311.8 257.7c-12.3 27.5-30 65.7-34.8 75.3-5.4 10.9-7.9 16.9-9.4 23.3l-.7 2.8 13.3-.3 13.2-.3 16.6-37.2c9.1-20.5 16.8-37.3 17.1-37.3.6 0 3.8 7 14.6 31.5 4.1 9.3 10.2 23.2 13.5 30.7l6 13.8 9.7-.1c10.4 0 16.8-1.6 16.3-3.9-.2-.8-11-24.8-24-53.2l-23.7-51.7-12.3-.1h-12.3l-3.1 6.7z"/><path d="M9.3 325.9c-4 .4-7.6 1.1-8 1.5-.5.4-.8 7.8-.7 16.4.1 12 .6 18.1 2.3 26 7.5 35.6 23.5 55.3 51.6 63.4 7.7 2.2 9.2 2.3 38.5 2 20.1-.2 33.8-.8 40.2-1.7 29.3-4.4 61.7-5.7 72.3-3 11.3 3 23 11.3 28.1 20.1 1.4 2.4 4.2 9.9 6.3 16.6l3.7 12.3 9.9.5c10.7.6 24.3-.4 25.7-1.8.5-.5 2-5.1 3.4-10.3 4.9-18.4 11.6-28.4 22.7-33.9 11.3-5.5 18.8-5.9 62.2-3 7.7.6 21.8 1.4 31.4 2 9.5.5 20.2 1.7 23.8 2.5 15.7 3.6 40.6.3 57.3-7.7 6.7-3.2 10.1-5.7 16.1-11.7 11.6-11.6 17.6-24 21.9-45.3 2-9.7 2.8-34.5 1.4-41.7l-.6-3.1H500c-10.4 0-19.5.3-20.4.6-1.1.4-1.6 1.9-1.6 4.3-.1 17-10.6 35-24.1 41.4-12.3 5.8-37.7 6.5-74.4 2.1-18.8-2.2-27.4-2.8-47-2.8-23.6-.1-24.1 0-32.1 2.7-18.5 6.2-30.6 18.6-37.4 38.2-2 5.7-1.3 6.5-7-7.6-7.8-19.3-23.1-30-47.2-33-10.8-1.3-20.5-1-78.8 2.7-47.3 3-52.7 2.8-63.5-2.5-11.6-5.7-17.4-14.6-22.1-33.7-1.5-6-3-11.2-3.3-11.5-1-1.1-23.9-1.7-31.8-1z"/></svg>